<svg width="23" height="17" viewBox="0 0 23 17" fill="none" xmlns="http://www.w3.org/2000/svg">
<path d="M20.6089 0H2.39109C1.10066 0 0 1.05778 0 2.38V14.62C0 15.9044 1.06271 17 2.39109 17H20.6089C21.8993 17 23 15.9422 23 14.62V2.34222C23 1.05778 21.8993 0 20.6089 0ZM20.6089 1.7C20.6469 1.7 20.6848 1.7 20.7228 1.7L11.5 7.59333L2.27723 1.7C2.31518 1.7 2.35314 1.7 2.39109 1.7H20.6089ZM20.6089 15.2244H2.39109C2.01155 15.2244 1.70792 14.9222 1.70792 14.5444V3.36222L10.5891 9.02889C10.8548 9.21778 11.1584 9.29333 11.462 9.29333C11.7657 9.29333 12.0693 9.21778 12.335 9.02889L21.2162 3.36222V14.5822C21.2921 14.96 20.9884 15.2244 20.6089 15.2244Z" fill="white"/>
</svg>
