<svg width="23" height="22" viewBox="0 0 23 22" fill="none" xmlns="http://www.w3.org/2000/svg">
<path d="M17.5624 21.6809C14.5249 21.6809 10.2124 19.5059 6.23739 15.7559C0.837392 10.5809 -1.45011 4.80589 0.949892 2.25589C1.06239 2.14339 1.21239 2.03089 1.36239 1.95589L4.39989 0.230889C5.18739 -0.219111 6.16239 0.00588924 6.68739 0.755889L8.89989 3.90589C9.16239 4.28089 9.27489 4.73089 9.16239 5.18089C9.08739 5.59339 8.82489 5.96839 8.44989 6.23089L7.13739 7.09339C8.14989 8.55589 10.8874 12.1934 15.2374 14.7809C15.2749 14.8184 15.3124 14.7809 15.3124 14.7809L16.2499 13.5059C16.7749 12.7934 17.7874 12.6059 18.5749 13.0934L21.8749 15.1934C22.6624 15.6809 22.8874 16.6934 22.3999 17.4809L20.5999 20.3684C20.4874 20.5184 20.3749 20.6684 20.2624 20.7809C19.5874 21.3809 18.6499 21.6809 17.5624 21.6809ZM5.26239 1.69339L2.18739 3.41839C0.762392 4.95589 2.52489 9.86839 7.43739 14.5184C12.4249 19.2434 17.5624 20.9309 19.2124 19.5059L21.0124 16.6184L17.7124 14.5184C17.6749 14.5184 17.6374 14.5184 17.6374 14.5184L16.6999 15.7934C16.1749 16.5059 15.1624 16.6934 14.4124 16.2434C9.72489 13.4309 6.79989 9.53089 5.74989 7.99339C5.48739 7.61839 5.41239 7.16839 5.48739 6.75589C5.56239 6.30589 5.82489 5.93089 6.19989 5.70589L7.51239 4.84339L5.33739 1.73089C5.29989 1.73089 5.26239 1.69339 5.26239 1.69339Z" fill="white"/>
</svg>
