<svg width="21" height="24" viewBox="0 0 21 24" fill="none" xmlns="http://www.w3.org/2000/svg">
<g clip-path="url(#clip0_1480_2589)">
<path d="M21 9.83906C18.9356 9.84348 16.922 9.19907 15.2438 7.99688V16.3781C15.2433 17.9304 14.7689 19.4455 13.884 20.7208C12.9991 21.9961 11.7459 22.9708 10.292 23.5146C8.83813 24.0584 7.25287 24.1453 5.74825 23.7638C4.24363 23.3822 2.89139 22.5503 1.87237 21.3794C0.853351 20.2084 0.216138 18.7543 0.0459537 17.2114C-0.12423 15.6685 0.180728 14.1104 0.920044 12.7456C1.65936 11.3807 2.79778 10.2741 4.18306 9.57374C5.56834 8.87341 7.13443 8.61272 8.67188 8.82656V13.0406C7.96888 12.8193 7.21393 12.8258 6.51483 13.0591C5.81573 13.2925 5.20822 13.7407 4.77905 14.3399C4.34988 14.939 4.12099 15.6585 4.12506 16.3955C4.12913 17.1325 4.36596 17.8493 4.80173 18.4437C5.2375 19.0381 5.84993 19.4796 6.55157 19.7052C7.25321 19.9308 8.00818 19.9289 8.70869 19.6998C9.4092 19.4708 10.0194 19.0262 10.4523 18.4297C10.8851 17.8332 11.1183 17.1151 11.1188 16.3781V0H15.2438C15.2414 0.348874 15.2712 0.697221 15.3328 1.04063C15.4763 1.80609 15.7743 2.53427 16.2087 3.18065C16.6431 3.82703 17.2048 4.37804 17.8594 4.8C18.7911 5.4154 19.8834 5.74306 21 5.74219V9.83906Z" fill="white"/>
</g>
<defs>
<clipPath id="clip0_1480_2589">
<rect width="21" height="24" fill="white"/>
</clipPath>
</defs>
</svg>
